<?xml version="1.0" encoding="UTF-8"?>
<svg version="1.1" xmlns="http://www.w3.org/2000/svg" width="46" height="46">
<path d="M0 0 C0.66 0 1.32 0 2 0 C2.66 2.97 3.32 5.94 4 9 C4.66 6.03 5.32 3.06 6 0 C6.99 0 7.98 0 9 0 C8.67 3.3 8.34 6.6 8 10 C9.32 7.36 10.64 4.72 12 2 C12.66 2 13.32 2 14 2 C13.67 4.64 13.34 7.28 13 10 C13.61875 9.2265625 13.61875 9.2265625 14.25 8.4375 C14.8275 7.963125 15.405 7.48875 16 7 C18.109375 7.41015625 18.109375 7.41015625 20 8 C12.88610478 16.81548975 12.88610478 16.81548975 8 18 C8 17.34 8 16.68 8 16 C4.92586854 16.07089192 1.99146375 16.26143257 -1 17 C-3.22298244 19.63979165 -3.91425455 21.74276366 -5 25 C-9.95 25 -14.9 25 -20 25 C-20 24.01 -20 23.02 -20 22 C-16.04 21.505 -16.04 21.505 -12 21 C-14.64 20.01 -17.28 19.02 -20 18 C-19.01 16.515 -19.01 16.515 -18 15 C-15.69 15.33 -13.38 15.66 -11 16 C-12.98 14.68 -14.96 13.36 -17 12 C-16.34 11.01 -15.68 10.02 -15 9 C-11.535 10.98 -11.535 10.98 -8 13 C-8.66 12.05125 -9.32 11.1025 -10 10.125 C-12 7 -12 7 -12 5 C-8.73045798 5.56371414 -7.17424117 6.49962266 -5 9 C-5.66 6.69 -6.32 4.38 -7 2 C-6.01 1.67 -5.02 1.34 -4 1 C-3.01 3.31 -2.02 5.62 -1 8 C-0.67 5.36 -0.34 2.72 0 0 Z " fill="#2b32b2" transform="translate(20,0)"/>
<path d="M0 0 C0 0.66 0 1.32 0 2 C-3.3 2.33 -6.6 2.66 -10 3 C-6.7 4.32 -3.4 5.64 0 7 C-0.33 7.66 -0.66 8.32 -1 9 C-3.31 9 -5.62 9 -8 9 C-5.525 10.485 -5.525 10.485 -3 12 C-3.33 12.99 -3.66 13.98 -4 15 C-6.31 14.01 -8.62 13.02 -11 12 C-9.68 14.31 -8.36 16.62 -7 19 C-7.99 19.495 -7.99 19.495 -9 20 C-10.65 18.68 -12.3 17.36 -14 16 C-13.67 18.31 -13.34 20.62 -13 23 C-13.99 23 -14.98 23 -16 23 C-16.66 21.68 -17.32 20.36 -18 19 C-18.99 21.475 -18.99 21.475 -20 24 C-20.66 24 -21.32 24 -22 24 C-22.66 22.02 -23.32 20.04 -24 18 C-24.66 19.98 -25.32 21.96 -26 24 C-26.66 24 -27.32 24 -28 24 C-28 21.03 -28 18.06 -28 15 C-29.32 17.31 -30.64 19.62 -32 22 C-32.66 22 -33.32 22 -34 22 C-33.67 19.69 -33.34 17.38 -33 15 C-34.27659388 14.89797113 -34.27659388 14.89797113 -35.9375 16.5 C-38 18 -38 18 -40 18 C-37.92623208 13.33402219 -35.25832657 9.83888438 -31 7 C-28.40625 7.05859375 -28.40625 7.05859375 -25.5 7.4375 C-21.19440918 7.9899524 -21.19440918 7.9899524 -17 7 C-16.71125 6.030625 -16.4225 5.06125 -16.125 4.0625 C-15 1 -15 1 -13 -0.4375 C-8.57602053 -1.26699615 -4.42706267 -0.63612163 0 0 Z M-16 13 C-15 15 -15 15 -15 15 Z " fill="#1488cc" transform="translate(46,22)"/>
<path d="M0 0 C5.94 3.465 5.94 3.465 12 7 C11.67 7.66 11.34 8.32 11 9 C11.66 9.66 12.32 10.32 13 11 C12.34 12.65 11.68 14.3 11 16 C6.05 16 1.1 16 -4 16 C-4 15.01 -4 14.02 -4 13 C-1.36 12.67 1.28 12.34 4 12 C1.36 11.01 -1.28 10.02 -4 9 C-3.34 8.01 -2.68 7.02 -2 6 C0.31 6.33 2.62 6.66 5 7 C3.02 5.68 1.04 4.36 -1 3 C-0.67 2.01 -0.34 1.02 0 0 Z " fill="#2F80ED" transform="translate(4,9)"/>
<path d="M0 0 C0.99 0 1.98 0 3 0 C2.67 3.3 2.34 6.6 2 10 C3.32 7.36 4.64 4.72 6 2 C6.66 2 7.32 2 8 2 C7.67 4.64 7.34 7.28 7 10 C7.4125 9.484375 7.825 8.96875 8.25 8.4375 C9.11625 7.7259375 9.11625 7.7259375 10 7 C12.109375 7.41015625 12.109375 7.41015625 14 8 C6.88610478 16.81548975 6.88610478 16.81548975 2 18 C2 17.34 2 16.68 2 16 C0.68 16 -0.64 16 -2 16 C-2.2396943 10.36718401 -1.38529821 5.45461169 0 0 Z " fill="#1488cc" transform="translate(26,0)"/>
<path d="M0 0 C0.45356243 6.46326465 -0.40621058 9.60931587 -4 15 C-4.66 15 -5.32 15 -6 15 C-5.67 12.69 -5.34 10.38 -5 8 C-6.27659388 7.89797113 -6.27659388 7.89797113 -7.9375 9.5 C-10 11 -10 11 -12 11 C-9.64863565 5.70943021 -6.29382373 0 0 0 Z " fill="#2F80ED" transform="translate(18,29)"/>
<path d="M0 0 C2.33659163 2.33659163 3.08324478 3.82661654 4 7 C3.625 10.8125 3.625 10.8125 3 14 C2.34 13.67 1.68 13.34 1 13 C1 12.34 1 11.68 1 11 C-0.32 11.33 -1.64 11.66 -3 12 C-7 6.25 -7 6.25 -7 4 C-3.73045798 4.56371414 -2.17424117 5.49962266 0 8 C-0.66 5.69 -1.32 3.38 -2 1 C-1.34 0.67 -0.68 0.34 0 0 Z " fill="#2F80ED" transform="translate(15,1)"/>
<path d="M0 0 C0.99 0 1.98 0 3 0 C2.9278125 0.90363281 2.855625 1.80726563 2.78125 2.73828125 C2.6884375 3.91777344 2.595625 5.09726563 2.5 6.3125 C2.4071875 7.48425781 2.314375 8.65601563 2.21875 9.86328125 C2.07635011 11.905194 2 13.9531279 2 16 C0.68 16 -0.64 16 -2 16 C-2.2396943 10.36718401 -1.38529821 5.45461169 0 0 Z " fill="#1488cc" transform="translate(26,0)"/>
<path d="M0 0 C3.3 0.66 6.6 1.32 10 2 C10.33 2.99 10.66 3.98 11 5 C6.45194365 5.17835515 3.1205746 4.99785435 -1 3 C-0.67 2.01 -0.34 1.02 0 0 Z " fill="#2F80ED" transform="translate(1,15)"/>
<path d="M0 0 C0.89203125 0.10183594 1.7840625 0.20367188 2.703125 0.30859375 C3.37859375 0.39238281 4.0540625 0.47617187 4.75 0.5625 C4.75 1.2225 4.75 1.8825 4.75 2.5625 C0.13 2.5625 -4.49 2.5625 -9.25 2.5625 C-9.25 1.9025 -9.25 1.2425 -9.25 0.5625 C-5.98086376 -0.46865279 -3.38958652 -0.4013984 0 0 Z " fill="#2F80ED" transform="translate(41.25,21.4375)"/>
<path d="M0 0 C1.9451 2.91765 2.45276317 4.62537285 3 8 C2.01 8 1.02 8 0 8 C-0.66 6.68 -1.32 5.36 -2 4 C-2.66 4.99 -3.32 5.98 -4 7 C-4 5.02 -4 3.04 -4 1 C-2.68 0.67 -1.36 0.34 0 0 Z " fill="#1488cc" transform="translate(30,37)"/>
<path d="M0 0 C0.66 0.33 1.32 0.66 2 1 C1.75 3.375 1.75 3.375 1 6 C-1.0625 7.3125 -1.0625 7.3125 -3 8 C-3.144375 7.401875 -3.28875 6.80375 -3.4375 6.1875 C-3.8872439 4.43849596 -4.42892341 2.71322977 -5 1 C-4.01 1 -3.02 1 -2 1 C-1.67 1.66 -1.34 2.32 -1 3 C-0.67 2.01 -0.34 1.02 0 0 Z " fill="#2b32b2" transform="translate(18,11)"/>
<path d="M0 0 C2.97 1.65 5.94 3.3 9 5 C8.67 5.99 8.34 6.98 8 8 C6.68397477 7.38245741 5.37226444 6.75571258 4.0625 6.125 C3.33160156 5.77695313 2.60070312 5.42890625 1.84765625 5.0703125 C0 4 0 4 -1 2 C-0.67 1.34 -0.34 0.68 0 0 Z " fill="#2F80ED" transform="translate(4,9)"/>
<path d="M0 0 C0.66 0.33 1.32 0.66 2 1 C0.73882275 4.88862987 -0.45264167 6.89375599 -4 9 C-4.66 9 -5.32 9 -6 9 C-4.47291037 5.56404834 -2.40072955 2.88087546 0 0 Z " fill="#2F80ED" transform="translate(12,31)"/>
<path d="M0 0 C0.99 0.33 1.98 0.66 3 1 C2.67 1.66 2.34 2.32 2 3 C2.66 3.66 3.32 4.32 4 5 C3.67 5.66 3.34 6.32 3 7 C0.36 6.67 -2.28 6.34 -5 6 C-3.68 5.67 -2.36 5.34 -1 5 C-0.67 3.35 -0.34 1.7 0 0 Z " fill="#1488cc" transform="translate(13,15)"/>
<path d="M0 0 C2.79828356 0.38597015 3.8205884 0.80136573 5.75 2.9375 C7 5 7 5 7 7 C6.01 7.33 5.02 7.66 4 8 C0 2.25 0 2.25 0 0 Z " fill="#1488cc" transform="translate(8,5)"/>
<path d="M0 0 C3.465 1.98 3.465 1.98 7 4 C6.67 4.99 6.34 5.98 6 7 C3.36 5.68 0.72 4.36 -2 3 C-1.34 2.67 -0.68 2.34 0 2 C0 1.34 0 0.68 0 0 Z " fill="#2F80ED" transform="translate(36,30)"/>
<path d="M0 0 C0.33 0 0.66 0 1 0 C1.02698189 1.62490954 1.04638757 3.24994633 1.0625 4.875 C1.07410156 5.77992187 1.08570313 6.68484375 1.09765625 7.6171875 C1 10 1 10 0 12 C-0.66 12 -1.32 12 -2 12 C-1 3.42857143 -1 3.42857143 0 0 Z " fill="#2F80ED" transform="translate(20,34)"/>
<path d="M0 0 C0.66 0 1.32 0 2 0 C3.4606285 2.64738916 4 3.89448334 4 7 C3.01 7 2.02 7 1 7 C0.67 4.69 0.34 2.38 0 0 Z " fill="#2b32b2" transform="translate(26,31)"/>
<path d="M0 0 C0.66 0 1.32 0 2 0 C1.67 2.31 1.34 4.62 1 7 C0.01 6.67 -0.98 6.34 -2 6 C-1.34 4.02 -0.68 2.04 0 0 Z " fill="#1488cc" transform="translate(32,2)"/>
</svg>
